<svg width="25" height="24" viewBox="0 0 25 24" fill="none" xmlns="http://www.w3.org/2000/svg">
<path d="M16.5547 21V19C16.5547 17.9391 16.1333 16.9217 15.3831 16.1716C14.633 15.4214 13.6156 15 12.5547 15H6.55469C5.49382 15 4.47641 15.4214 3.72626 16.1716C2.97611 16.9217 2.55469 17.9391 2.55469 19V21M19.5547 8V14M22.5547 11H16.5547M13.5547 7C13.5547 9.20914 11.7638 11 9.55469 11C7.34555 11 5.55469 9.20914 5.55469 7C5.55469 4.79086 7.34555 3 9.55469 3C11.7638 3 13.5547 4.79086 13.5547 7Z" stroke="white" stroke-opacity="0.9" stroke-width="1.5" stroke-linecap="round" stroke-linejoin="round"/>
</svg>
